<?xml version="1.0" encoding="UTF-8"?>
<svg width="50px" height="50px" viewBox="0 0 50 50" version="1.1" xmlns="http://www.w3.org/2000/svg" xmlns:xlink="http://www.w3.org/1999/xlink">
    <!-- Generator: Sketch 63 (92445) - https://sketch.com -->
    <desc>Created with Sketch.</desc>
    <g id="✅-首页设计稿" stroke="none" stroke-width="1" fill="none" fill-rule="evenodd" opacity="0.900000036">
        <g id="首屏" transform="translate(-1041.000000, -4500.000000)" fill="#666666">
            <g id="编组-5" transform="translate(0.000000, 4450.000000)">
                <g id="编组-4" transform="translate(474.000000, 48.000000)">
                    <g id="3备份-2" transform="translate(564.000000, 2.000000)">
                        <g id="icon/服务露出备份-3" transform="translate(3.000000, 0.000000)">
                            <path d="M11,13 L27,13 C27.5522,13 28,13.44772 28,14 L28,16 L28,19 L28,30.6822 C27.931,30.786 27.8652,30.8918 27.8026,31 L22.1974,31 C21.1598,29.2066 19.22084,28 17,28 C14.77916,28 12.84012,29.2066 11.8027,31 L11,31 C10.44772,31 10,30.5522 10,30 L10,14 C10,13.44772 10.44772,13 11,13 Z M23,34 L27,34 C27,37.3138 29.6862,40 33,40 C36.3138,40 39,37.3138 39,34 L39.0136,34 C41.5726,34 43.4734,31.6304 42.9182,29.1322 L40.696,19.13228 C40.2894,17.30212 38.6662,16 36.7914,16 L31,16 L31,14 C31,11.79086 29.2092,10 27,10 L11,10 C8.79086,10 7,11.79086 7,14 L7,30 C7,32.2092 8.79086,34 11,34 C11,37.3138 13.6863,40 17,40 C20.3137,40 23,37.3138 23,34 Z M33,28 C35.2208,28 37.1598,29.2066 38.1974,31 L39.0136,31 C39.6532,31 40.1286,30.4076 39.9898,29.783 L37.7676,19.78306 C37.6658,19.32554 37.26,19 36.7914,19 L31,19 L31,28.3414 C31.6256,28.1204 32.2988,28 33,28 Z M20,34 C20,35.6568 18.65686,37 17,37 C15.34314,37 14,35.6568 14,34 C14,32.3432 15.34314,31 17,31 C18.65686,31 20,32.3432 20,34 Z M36,34 C36,35.6568 34.6568,37 33,37 C31.3432,37 30,35.6568 30,34 C30,32.3432 31.3432,31 33,31 C34.6568,31 36,32.3432 36,34 Z M33.5,21 L33.5,26 L36.5,26 L36.5,21 L33.5,21 Z" id="形状"></path>
                        </g>
                    </g>
                </g>
            </g>
        </g>
    </g>
</svg>