<?xml version="1.0" encoding="UTF-8"?>
<svg width="50px" height="50px" viewBox="0 0 50 50" version="1.1" xmlns="http://www.w3.org/2000/svg" xmlns:xlink="http://www.w3.org/1999/xlink">
    <!-- Generator: Sketch 63 (92445) - https://sketch.com -->
    <desc>Created with Sketch.</desc>
    <g id="✅-首页设计稿" stroke="none" stroke-width="1" fill="none" fill-rule="evenodd" opacity="0.900000036">
        <g id="首屏" transform="translate(-488.000000, -4500.000000)" fill="#666666">
            <g id="编组-5" transform="translate(0.000000, 4450.000000)">
                <g id="编组-4" transform="translate(474.000000, 48.000000)">
                    <g id="3" transform="translate(0.000000, 2.000000)">
                        <g id="icon/服务露出备份" transform="translate(14.000000, 0.000000)">
                            <path d="M25.3008,7.2998 C27.3944,7.2998 29.1542,8.72958 29.6568,10.666 C36.5022,12.67582 41.5004,19.00412 41.5004,26.4998 C41.5004,26.849 41.4896,27.1956 41.4682,27.5394 L38.4864,27.1204 C38.4956,26.9148 38.5004,26.7078 38.5004,26.4998 C38.5004,20.57338 34.6816,15.53886 29.3704,13.7228 C28.6492,15.24614 27.098,16.2998 25.3008,16.2998 C22.8156,16.2998 20.80078,14.28508 20.80078,11.7998 C20.80078,9.31452 22.8156,7.2998 25.3008,7.2998 Z M23.8008,11.7998 C23.8008,10.97138 24.4724,10.2998 25.3008,10.2998 C26.1292,10.2998 26.8008,10.97138 26.8008,11.7998 C26.8008,12.62824 26.1292,13.2998 25.3008,13.2998 C24.4724,13.2998 23.8008,12.62824 23.8008,11.7998 Z M17.99054,11.55858 C12.38284,14.19406 8.5004,19.89356 8.5004,26.4998 C8.5004,27.9652 8.6914,29.3858 9.04986,30.7384 C7.98586,31.5614 7.30078,32.8506 7.30078,34.2998 C7.30078,36.785 9.3155,38.7998 11.80078,38.7998 C14.28606,38.7998 16.30078,36.785 16.30078,34.2998 C16.30078,31.85 14.34318,29.8574 11.90692,29.801 C11.6414,28.7446 11.5004,27.6386 11.5004,26.4998 C11.5004,21.267 14.47772,16.72944 18.83078,14.4889 L17.99054,11.55858 Z M25.0004,42.9998 C21.272,42.9998 17.83242,41.7632 15.06946,39.6778 L17.0862,37.438 C19.30982,39.0496 22.0442,39.9998 25.0004,39.9998 C28.7664,39.9998 32.1724,38.4576 34.621,35.9704 C34.4144,35.4538 34.3008,34.8902 34.3008,34.2998 C34.3008,31.8146 36.3156,29.7998 38.8008,29.7998 C41.286,29.7998 43.3008,31.8146 43.3008,34.2998 C43.3008,36.785 41.286,38.7998 38.8008,38.7998 C38.0036,38.7998 37.2548,38.5926 36.6054,38.229 C33.6246,41.1784 29.5252,42.9998 25.0004,42.9998 Z M38.8008,32.7998 C37.9724,32.7998 37.3008,33.4714 37.3008,34.2998 C37.3008,35.1282 37.9724,35.7998 38.8008,35.7998 C39.6292,35.7998 40.3008,35.1282 40.3008,34.2998 C40.3008,33.4714 39.6292,32.7998 38.8008,32.7998 Z M10.30078,34.2998 C10.30078,33.4714 10.97236,32.7998 11.80078,32.7998 C12.6292,32.7998 13.30078,33.4714 13.30078,34.2998 C13.30078,35.1282 12.6292,35.7998 11.80078,35.7998 C10.97236,35.7998 10.30078,35.1282 10.30078,34.2998 Z M24.491,24.1056 C24.6598,25.0128 24.2756,25.934 23.577,26.5846 L18.02746,31.7532 C17.25506,32.4726 17.33192,33.6836 18.25798,34.3054 C18.98548,34.7934 20.00536,34.6494 20.63906,34.0592 L26.3362,28.753 C27.0098,28.1274 27.9558,27.8774 28.902,27.9694 C29.0686,27.9852 29.2372,27.9936 29.4088,27.9936 C31.0494,27.9936 32.4924,27.2472 33.4006,26.1086 L33.4006,25.2052 L29.4858,25.2052 C29.0196,25.2052 28.6036,24.9088 28.5088,24.483 C28.4308,24.1336 28.386,23.7552 28.381,23.3464 C28.386,22.9384 28.4308,22.559 28.5088,22.2096 C28.6036,21.784 29.0196,21.4874 29.4858,21.4874 L33.4006,21.4874 L33.4006,20.58866 C32.3648,19.28742 30.6304,18.49832 28.7044,18.74462 C26.7284,18.9965 25.0798,20.40554 24.5778,22.204 C24.3922,22.8696 24.3782,23.509 24.491,24.1056 Z" id="形状"></path>
                        </g>
                    </g>
                </g>
            </g>
        </g>
    </g>
</svg>