<?xml version="1.0" encoding="UTF-8"?>
<svg width="50px" height="50px" viewBox="0 0 50 50" version="1.1" xmlns="http://www.w3.org/2000/svg" xmlns:xlink="http://www.w3.org/1999/xlink">
    <!-- Generator: Sketch 63 (92445) - https://sketch.com -->
    <desc>Created with Sketch.</desc>
    <g id="✅-首页设计稿" stroke="none" stroke-width="1" fill="none" fill-rule="evenodd" opacity="0.900000036">
        <g id="首屏" transform="translate(-1373.000000, -4500.000000)" fill="#666666">
            <g id="编组-5" transform="translate(0.000000, 4450.000000)">
                <g id="编组-4" transform="translate(474.000000, 48.000000)">
                    <g id="3备份-4" transform="translate(876.000000, 0.000000)">
                        <g id="icon/服务露出备份-6" transform="translate(23.000000, 0.000000)">
                            <path d="M25,7 C33.1,7 39.625,13.525 39.625,21.625 C39.625,32.6284 29.2276,40.2726 25.9664,42.3996 C25.3752,42.7852 24.6248,42.7852 24.0336,42.3996 C20.77236,40.2726 10.375,32.6284 10.375,21.625 C10.375,13.525 16.9,7 25,7 Z M25,10 C18.55686,10 13.375,15.18186 13.375,21.625 C13.375,26.1518 15.51598,30.1478 18.27112,33.4026 C20.65698,36.2212 23.3486,38.296 25,39.4352 C26.6514,38.296 29.343,36.2212 31.7288,33.4026 C34.484,30.1478 36.625,26.1518 36.625,21.625 C36.625,15.18186 31.4432,10 25,10 Z M25,13.37696 C29.541,13.37696 33.25,17.08602 33.25,21.627 C33.25,26.1678 29.541,29.877 25,29.877 C20.45908,29.877 16.75,26.1678 16.75,21.627 C16.75,17.08602 20.45908,13.37696 25,13.37696 Z M25,16.37696 C22.116,16.37696 19.75,18.74288 19.75,21.627 C19.75,24.511 22.116,26.877 25,26.877 C27.884,26.877 30.25,24.511 30.25,21.627 C30.25,18.74288 27.884,16.37696 25,16.37696 Z" id="形状结合"></path>
                        </g>
                    </g>
                </g>
            </g>
        </g>
    </g>
</svg>