<?xml version="1.0" encoding="UTF-8"?>
<svg width="50px" height="50px" viewBox="0 0 50 50" version="1.1" xmlns="http://www.w3.org/2000/svg" xmlns:xlink="http://www.w3.org/1999/xlink">
    <!-- Generator: Sketch 63 (92445) - https://sketch.com -->
    <desc>Created with Sketch.</desc>
    <g id="✅-首页设计稿" stroke="none" stroke-width="1" fill="none" fill-rule="evenodd" opacity="0.900000036">
        <g id="首屏" transform="translate(-868.000000, -4500.000000)" fill="#666666" fill-rule="nonzero">
            <g id="编组-5" transform="translate(0.000000, 4450.000000)">
                <g id="编组-4" transform="translate(474.000000, 48.000000)">
                    <g id="3备份" transform="translate(374.000000, 2.000000)">
                        <g id="icon/服务露出" transform="translate(20.000000, 0.000000)">
                            <path d="M16.8348,8.79658 C17.23268,8.79658 17.6142,8.9549 17.89546,9.23632 C18.17674,9.51774 18.3347,9.89936 18.33464,10.29724 L18.33464,18.63056 L15.33496,18.63056 L15.33496,13.76678 C13.66578,15.18928 12.32456,16.95646 11.40354,18.9468 C10.48252,20.93712 10.0036,23.1034 9.99968,25.2964 L9.99968,25.2988 C9.99984,27.2906 10.3923,29.2628 11.15468,31.103 C11.91706,32.943 13.03442,34.6148 14.44294,36.0232 C15.85148,37.4314 17.5236,38.5484 19.36384,39.3104 C21.204,40.0724 23.1764,40.4644 25.1682,40.4642 L25.1682,43.4638001 C20.35012,43.4642 15.7293,41.5504 12.32214,38.144 C8.915,34.7374 7.00058,30.1168 6.99999984,25.2988 L6.99999984,25.2956 C6.99966,22.7464 7.53844,20.22602 8.58098,17.89978 C9.62352,15.57352 11.14624,13.49406 13.0492,11.79788 L8.50146,11.79788 L8.50146,8.79658 L16.8348,8.79658 Z M25.1682,6.99978 C29.9864,6.99978 34.6072,8.91344 38.0146,12.3201 C41.4218,15.72678 43.3364,20.34736 43.337,25.1656 L43.337,25.1656 C43.337,27.72 42.798,30.24 41.7554,32.566 C40.7128,34.892 39.1902,36.9712 37.2876,38.6672 L37.2876,38.6672 L41.8348,38.6672 L41.8348,41.667 L33.5014,41.667 C33.1036,41.667 32.722,41.509 32.4406,41.2278 C32.1592,40.9466 32.001,40.565 32.0008,40.167 L32.0008,40.167 L32.0008,31.8338 L35.0022,31.8338 L35.0022,36.6982 C36.6706,35.2758 38.0112,33.5088 38.9318,31.519 C39.8526,29.5292 40.3316,27.3636 40.3358,25.1712 L40.3358,25.1712 C40.3362,23.1744 39.9442,21.202 39.182,19.36178 C38.4198,17.52152 37.3026,15.84946 35.894,14.44114 C34.4854,13.0328 32.8132,11.9158 30.9728,11.15396 C29.1324,10.39212 27.16,10.00038 25.1682,10.00108 L25.1682,10.00108 Z M24.4376,16.56348 C25.266,16.56348 25.9376,17.23504 25.9376,18.06348 L25.9369997,25.19678 L33.4414,25.1972 C34.2698,25.1972 34.9414,25.8688 34.9414,26.6972 C34.9414,27.5256 34.2698,28.1972 33.4414,28.1972 L22.9414,28.1972 L22.9409997,26.68778 L22.9376,26.6884 L22.9376,18.06348 C22.9374,17.23504 23.609,16.56348 24.4376,16.56348 Z" id="形状结合"></path>
                        </g>
                    </g>
                </g>
            </g>
        </g>
    </g>
</svg>