<?xml version="1.0" encoding="UTF-8"?>
<svg width="28px" height="28px" fill="#ffffff" viewBox="0 0 28 28" version="1.1" xmlns="http://www.w3.org/2000/svg" xmlns:xlink="http://www.w3.org/1999/xlink">
    <!-- Generator: Sketch 63 (92445) - https://sketch.com -->
    <desc>Created with Sketch.</desc>
    <g id="✅-首页设计稿" stroke="none" stroke-width="1">
        <g id="首屏" transform="translate(-1660.000000, -717.000000)" fill-rule="nonzero">
            <g id="编组-21备份-3" transform="translate(1640.000000, 707.000000)">
                <g id="02-服务-icons/在线客服-+-02-服务-icons/在线客服备份-+-矩形-+-在线客服-+-路径-2-+-路径-2备份-+-路径-2备份-2-蒙版">
                    <g id="编组-27" transform="translate(20.000000, 10.000000)">
                        <g id="02-服务-icons/在线客服">
                            <path d="M14,3.73333333 C15.6846742,3.73333333 17.2666593,4.15444444 18.6329193,4.95143768 C19.9740744,5.73378626 21.0735922,6.85950154 21.8367328,8.23081239 C22.5848834,9.57518721 22.9924958,11.1230962 23.0206567,12.7720674 L23.0222222,12.9556971 L23.0222222,19.5836257 C23.0222222,22.1376623 20.9727032,24.2135182 18.4254848,24.2656623 L18.3272727,24.2666667 L12.2181818,24.2666667 L12.2181818,23.0222222 L18.3272727,23.0222222 C20.2030862,23.0222222 21.7286569,21.5308 21.7766151,19.673763 L21.7777778,19.5836257 L21.7777778,12.9556971 C21.7777778,11.4476361 21.4210923,10.0430649 20.749331,8.83595638 C20.0943924,7.65907715 19.1536087,6.69587801 18.005875,6.0263597 C16.8313965,5.34124017 15.4659799,4.97777778 14,4.97777778 C12.5340201,4.97777778 11.1686035,5.34124017 9.99412504,6.0263597 C8.84639126,6.69587801 7.90560758,7.65907715 7.25066901,8.83595638 C6.60474467,9.99663767 6.25012566,11.3398843 6.22380278,12.7821547 L6.22222222,12.9556971 L6.22222222,17.6166667 L4.97777778,17.6166667 L4.97777778,12.9556971 C4.97777778,11.2380353 5.38740729,9.62497887 6.16326719,8.23081239 C6.92640783,6.85950154 8.02592558,5.73378626 9.36708069,4.95143768 C10.7333407,4.15444444 12.3153258,3.73333333 14,3.73333333 Z M14.1593658,21.4666667 C14.4834322,21.4666667 14.6406222,21.5082136 14.7865004,21.5862301 C14.9323785,21.6642466 15.0468645,21.7787326 15.124881,21.9246107 C15.2028975,22.0704889 15.2444444,22.2276789 15.2444444,22.5517453 L15.2444444,22.7111111 L12.7555556,22.7111111 L12.7555556,22.5517453 C12.7555556,22.2276789 12.7971025,22.0704889 12.875119,21.9246107 C12.9531355,21.7787326 13.0676215,21.6642466 13.2134996,21.5862301 C13.3593778,21.5082136 13.5165678,21.4666667 13.8406342,21.4666667 L14.1593658,21.4666667 Z M8.71111111,12.4444444 C9.91386457,12.4444444 10.8888889,13.4194688 10.8888889,14.6222222 L10.8888889,17.1111111 C10.8888889,18.3138646 9.91386457,19.2888889 8.71111111,19.2888889 L7.55438214,19.2888889 C7.3340104,19.2888889 7.18135747,19.2594102 7.0212736,19.1737965 C6.8621403,19.088691 6.73353119,18.9600819 6.64842576,18.8009486 C6.56281198,18.6408648 6.53333333,18.4882118 6.53333333,18.2678401 L6.53333333,13.4654933 C6.53333333,13.2451215 6.56281198,13.0924686 6.64842576,12.9323847 C6.73353119,12.7732514 6.8621403,12.6446423 7.0212736,12.5595369 C7.18135747,12.4739231 7.3340104,12.4444444 7.55438214,12.4444444 L8.71111111,12.4444444 Z M20.4456179,12.4444444 C20.6659896,12.4444444 20.8186425,12.4739231 20.9787264,12.5595369 C21.1378597,12.6446423 21.2664688,12.7732514 21.3515742,12.9323847 C21.437188,13.0924686 21.4666667,13.2451215 21.4666667,13.4654933 L21.4666667,13.4654933 L21.4666667,18.2678401 C21.4666667,18.4882118 21.437188,18.6408648 21.3515742,18.8009486 C21.2664688,18.9600819 21.1378597,19.088691 20.9787264,19.1737965 C20.8186425,19.2594102 20.6659896,19.2888889 20.4456179,19.2888889 L20.4456179,19.2888889 L19.2888889,19.2888889 C18.0861354,19.2888889 17.1111111,18.3138646 17.1111111,17.1111111 L17.1111111,17.1111111 L17.1111111,14.6222222 C17.1111111,13.4194688 18.0861354,12.4444444 19.2888889,12.4444444 L19.2888889,12.4444444 Z M8.71111111,13.6888889 L7.77777778,13.6888889 L7.77777778,18.0444444 L8.71111111,18.0444444 C9.22657688,18.0444444 9.64444444,17.6265769 9.64444444,17.1111111 L9.64444444,14.6222222 C9.64444444,14.1067565 9.22657688,13.6888889 8.71111111,13.6888889 Z M20.2222222,13.6888889 L19.2888889,13.6888889 C18.7734231,13.6888889 18.3555556,14.1067565 18.3555556,14.6222222 L18.3555556,14.6222222 L18.3555556,17.1111111 C18.3555556,17.6265769 18.7734231,18.0444444 19.2888889,18.0444444 L19.2888889,18.0444444 L20.2222222,18.0444444 L20.2222222,13.6888889 Z" id="形状结合"></path>
                        </g>
                    </g>
                </g>
            </g>
        </g>
    </g>
</svg>