<?xml version="1.0" encoding="UTF-8"?>
<svg width="20px" height="20px" fill="currentColor" viewBox="0 0 20 20" version="1.1" xmlns="http://www.w3.org/2000/svg" xmlns:xlink="http://www.w3.org/1999/xlink">
    <g id="画板" stroke="none" stroke-width="1" fill="none" fill-rule="evenodd">
        <g id="3-Searchbar-搜索栏/z/搜素图标">
            <rect id="Mask" x="0" y="0" width="20" height="20"></rect>
            <path d="M8.57142857,2.38095238 C12.5163196,2.38095238 15.7142857,5.57891845 15.7142857,9.52380952 C15.7142857,11.0300879 15.2480406,12.4274689 14.4519965,13.5795063 L18.6391122,17.7684326 L17.2922421,19.1153027 L13.1687223,14.9907652 C11.9263611,16.0365801 10.3224772,16.6666667 8.57142857,16.6666667 C4.6265375,16.6666667 1.42857143,13.4687006 1.42857143,9.52380952 C1.42857143,5.57891845 4.6265375,2.38095238 8.57142857,2.38095238 Z M8.57142857,4.28571429 C5.67850845,4.28571429 3.33333333,6.63088941 3.33333333,9.52380952 C3.33333333,12.4167296 5.67850845,14.7619048 8.57142857,14.7619048 C11.4643487,14.7619048 13.8095238,12.4167296 13.8095238,9.52380952 C13.8095238,6.63088941 11.4643487,4.28571429 8.57142857,4.28571429 Z" id="形状结合"   fill="#000000" fill-rule="nonzero"></path>
        </g>
    </g>
</svg>